<?xml version="1.0" encoding="UTF-8"?>
<svg version="1.1" xmlns="http://www.w3.org/2000/svg" width="1024" height="1024">
<path d="M0 0 C337.92 0 675.84 0 1024 0 C1024 337.92 1024 675.84 1024 1024 C686.08 1024 348.16 1024 0 1024 C0 686.08 0 348.16 0 0 Z " fill="#1A1A1B" transform="translate(0,0)"/>
<path d="M0 0 C1.63696083 -0.01441132 1.63696083 -0.01441132 3.30699158 -0.02911377 C4.4903157 -0.03336365 5.67363983 -0.03761353 6.89282227 -0.04199219 C8.10365982 -0.04769226 9.31449738 -0.05339233 10.56202698 -0.05926514 C13.12679162 -0.06872422 15.69156846 -0.07525271 18.25634766 -0.07910156 C22.18942313 -0.08881826 26.12197867 -0.11983854 30.05493164 -0.15136719 C32.54255873 -0.15789584 35.03018958 -0.16314685 37.51782227 -0.16699219 C39.28977211 -0.18551239 39.28977211 -0.18551239 41.09751892 -0.20440674 C42.73920799 -0.19990509 42.73920799 -0.19990509 44.4140625 -0.1953125 C45.86062477 -0.20078094 45.86062477 -0.20078094 47.33641052 -0.20635986 C49.77172852 0.16113281 49.77172852 0.16113281 51.50958252 1.41323853 C52.95425221 3.4139024 53.6185175 5.1186823 54.32373047 7.48388672 C54.5937085 8.37206589 54.86368652 9.26024506 55.1418457 10.17533875 C55.42833984 11.15291641 55.71483398 12.13049408 56.01000977 13.13769531 C56.32317139 14.17751053 56.63633301 15.21732574 56.95898438 16.28865051 C58.009732 19.78518261 59.04686144 23.28560968 60.08422852 26.78613281 C60.82768291 29.26956582 61.57209008 31.75271377 62.31738281 34.2355957 C63.72515901 38.92778139 65.12932234 43.62102428 66.52967548 48.31543064 C69.45209689 58.11077632 72.40535777 67.89665436 75.36547852 77.68066406 C92.98915862 135.95520185 92.98915862 135.95520185 100.53662109 162.2097168 C100.86629883 163.35065041 100.86629883 163.35065041 101.20263672 164.51463318 C101.77302528 166.48977769 102.33957627 168.46602936 102.90576172 170.44238281 C103.50699423 173.04944951 103.50699423 173.04944951 104.77172852 174.16113281 C105.3017749 172.56120483 105.3017749 172.56120483 105.8425293 170.92895508 C108.57056057 162.71080615 111.32639152 154.50312293 114.13891602 146.31347656 C114.42265579 145.48723282 114.70639557 144.66098907 114.99873352 143.80970764 C115.58214479 142.11115545 116.16558521 140.41261326 116.74905396 138.71408081 C121.52575792 124.79676447 126.22595231 110.86561038 130.65454102 96.83300781 C133.44866069 87.98635229 136.33612916 79.16986973 139.20922852 70.34863281 C143.48988818 57.19940884 147.75280998 44.04488778 151.96875 30.87475586 C152.61005044 28.87306411 153.25410465 26.87225137 153.90161133 24.87255859 C154.47232111 23.09413466 155.0294669 21.31128849 155.5715332 19.52392578 C155.82064453 18.72229004 156.06975586 17.9206543 156.32641602 17.09472656 C156.53508301 16.40306396 156.74375 15.71140137 156.95874023 14.9987793 C157.94705364 12.76483486 158.85606431 11.68817325 160.77172852 10.16113281 C163.11766052 9.76672363 163.11766052 9.76672363 165.9140625 9.74121094 C166.96202499 9.72529907 168.00998749 9.70938721 169.08970642 9.69299316 C170.78662376 9.69269104 170.78662376 9.69269104 172.51782227 9.69238281 C173.68048111 9.68476929 174.84313995 9.67715576 176.04103088 9.66931152 C178.50145315 9.65849916 180.96192136 9.655662 183.42236328 9.66015625 C187.19128825 9.66112819 190.95817598 9.61952345 194.72680664 9.57519531 C197.11547426 9.5699883 199.50414897 9.56730012 201.89282227 9.56738281 C203.02207626 9.55098755 204.15133026 9.53459229 205.31480408 9.5177002 C213.10559571 9.58667135 213.10559571 9.58667135 216.42749023 12.45141602 C217.54143817 14.69691332 218.51196464 16.69739805 219.15844727 19.11035156 C219.36937012 19.8611499 219.58029297 20.61194824 219.79760742 21.38549805 C220.01594238 22.19833252 220.23427734 23.01116699 220.45922852 23.84863281 C222.69082201 31.69671582 225.18055283 39.40520646 227.89672852 47.09863281 C231.61927115 57.69570427 235.1400511 68.34602884 238.58422852 79.03613281 C242.90563843 92.44589197 247.30776962 105.8255057 251.78338623 119.18457031 C255.33318749 129.78480309 258.79287383 140.40912925 262.16918945 151.06616211 C264.53270852 158.49680765 267.05239274 165.85291793 269.77172852 173.16113281 C272.00864901 167.39464684 273.90305728 161.60701264 275.62719727 155.66894531 C275.89252762 154.76530243 276.15785797 153.86165955 276.43122864 152.93063354 C277.27671781 150.04995136 278.118297 147.16814845 278.95922852 144.28613281 C282.46515495 132.29057992 286.01309872 120.3117949 289.70532227 108.37207031 C293.44005682 96.29316564 297.06257316 84.18320813 300.64346313 72.05789185 C301.67510496 68.5650586 302.70895531 65.07288453 303.74316406 61.58081055 C306.82269398 51.17695702 309.8923075 40.77041954 312.92407227 30.35253906 C313.38580081 28.76919909 313.84755118 27.18586549 314.30932617 25.60253906 C315.13313508 22.77716758 315.95112392 19.95020742 316.76538086 17.12207031 C317.1245459 15.8884375 317.48371094 14.65480469 317.85375977 13.38378906 C318.30585815 11.81769897 318.30585815 11.81769897 318.76708984 10.2199707 C319.89320661 6.79126671 321.35011366 3.47823415 322.77172852 0.16113281 C341.91172852 0.16113281 361.05172852 0.16113281 380.77172852 0.16113281 C381.72573551 5.88517481 381.65003672 7.74553708 380.08837891 13.02783203 C379.89672842 13.6889159 379.70507793 14.34999977 379.50761986 15.03111649 C378.86936847 17.22140305 378.21322921 19.40589379 377.55688477 21.59082031 C377.09778612 23.1525001 376.63980692 24.71450936 376.18287659 26.27682495 C374.97037172 30.41144982 373.7427646 34.54144309 372.51212311 38.67070007 C371.32075197 42.67806278 370.14414512 46.68974317 368.96655273 50.70117188 C366.31944098 59.70760649 363.64976648 68.70726916 360.97577286 77.70575333 C359.92791431 81.23310659 358.88144756 84.76087219 357.83495998 88.28863239 C350.75255423 112.1631952 343.64432635 136.03002089 336.51831055 159.89160156 C332.61870926 172.95171736 328.73698924 186.01691092 324.88015747 199.08972168 C324.09886414 201.73655094 323.31625491 204.38298737 322.53320312 207.02929688 C319.98586204 215.64118235 317.44998666 224.25615123 314.93797302 232.87841797 C313.65831971 237.26449594 312.37087334 241.64826476 311.0821228 246.03167725 C310.46321683 248.14364265 309.84778439 250.25662936 309.23599243 252.3706665 C308.38954171 255.29437623 307.5312301 258.21435547 306.67016602 261.13378906 C306.29602318 262.4428849 306.29602318 262.4428849 305.9143219 263.77842712 C305.67567917 264.57898026 305.43703644 265.37953339 305.19116211 266.2043457 C304.98832611 266.89992081 304.78549011 267.59549591 304.57650757 268.31214905 C303.59852322 270.55907281 302.75025568 271.70185294 300.77172852 273.16113281 C298.42579651 273.54881287 298.42579651 273.54881287 295.62939453 273.56518555 C294.05745079 273.58421181 294.05745079 273.58421181 292.45375061 273.60362244 C291.32247238 273.6006868 290.19119415 273.59775116 289.02563477 273.59472656 C287.86297592 273.59996841 286.70031708 273.60521027 285.50242615 273.61061096 C283.04199014 273.61703858 280.58152344 273.61568467 278.12109375 273.60717773 C274.35238998 273.59867379 270.58520409 273.62741184 266.81665039 273.65917969 C264.42797897 273.66079186 262.03930486 273.66021386 259.65063477 273.65722656 C257.95675377 273.67407753 257.95675377 273.67407753 256.22865295 273.69126892 C255.1775383 273.68188797 254.12642365 273.67250702 253.04345703 273.6628418 C252.11984879 273.66267563 251.19624054 273.66250946 250.24464417 273.66233826 C246.97545188 272.99974511 245.83215696 271.73949819 243.77172852 269.16113281 C242.80873108 267.22744751 242.80873108 267.22744751 242.14697266 265.17919922 C241.75912094 264.00994904 241.75912094 264.00994904 241.36343384 262.81707764 C241.09727264 261.97413147 240.83111145 261.1311853 240.55688477 260.26269531 C240.26510345 259.3733429 239.97332214 258.48399048 239.67269897 257.56768799 C238.71571982 254.64390965 237.775228 251.71508887 236.83422852 248.78613281 C235.82722099 245.6979764 234.81588391 242.6112586 233.80439758 239.52456665 C233.11867015 237.43092589 232.43434357 235.33682582 231.75138855 233.24227905 C228.92079558 224.5696705 225.98046484 215.93822326 222.99780273 207.31695557 C217.51419339 191.45650683 212.27159924 175.52415797 207.10083008 159.55932617 C202.77864761 146.21947868 198.39118686 132.90240796 193.95922852 119.59863281 C193.65228058 118.67538208 193.34533264 117.75213135 193.02908325 116.80090332 C192.16765588 114.21077344 191.30409762 111.62136557 190.43969727 109.03222656 C190.18310333 108.26045578 189.9265094 107.488685 189.66213989 106.69352722 C188.39402491 102.8561412 188.39402491 102.8561412 186.77172852 99.16113281 C186.47105469 100.06839111 186.17038086 100.97564941 185.8605957 101.91040039 C184.41649124 106.26553779 182.96964664 110.61976195 181.52172852 114.97363281 C181.25362366 115.77989105 180.9855188 116.58614929 180.70928955 117.4168396 C176.99850089 128.56776365 173.22935681 139.69665696 169.39483643 150.80560303 C162.02621145 172.16000687 155.09916369 193.63985574 148.39682007 215.21185303 C148.19053986 215.87574036 147.98425964 216.53962769 147.77172852 217.22363281 C147.5676236 217.88059143 147.36351868 218.53755005 147.15322876 219.2144165 C143.97957405 229.41754754 140.70339224 239.58338415 137.33422852 249.72363281 C136.92108398 250.97217041 136.50793945 252.22070801 136.08227539 253.50708008 C130.46822816 270.29238533 130.46822816 270.29238533 126.77172852 273.16113281 C124.41906738 273.54208374 124.41906738 273.54208374 121.61352539 273.54931641 C120.56233521 273.55877289 119.51114502 273.56822937 118.42810059 273.57797241 C117.2936853 273.57189972 116.15927002 273.56582703 114.99047852 273.55957031 C113.825448 273.56244049 112.66041748 273.56531067 111.46008301 273.56826782 C108.99543777 273.57031048 106.53077639 273.5647666 104.06616211 273.55224609 C100.28666037 273.53619622 96.50822812 273.55208895 92.72875977 273.57128906 C90.33683031 273.56930667 87.94490153 273.56546307 85.55297852 273.55957031 C84.41856323 273.56564301 83.28414795 273.5717157 82.11535645 273.57797241 C81.06416626 273.56851593 80.01297607 273.55905945 78.92993164 273.54931641 C77.54118835 273.54573624 77.54118835 273.54573624 76.12438965 273.54208374 C73.266858 273.07938245 72.45720139 272.48721935 70.77172852 270.16113281 C69.88670349 268.04017639 69.88670349 268.04017639 69.15625 265.5402832 C68.87348206 264.59052109 68.59071411 263.64075897 68.29937744 262.66221619 C68.00021423 261.62158524 67.70105103 260.58095428 67.39282227 259.50878906 C67.0690863 258.41236588 66.74535034 257.31594269 66.4118042 256.18629456 C65.33553314 252.53458332 64.27263397 248.87910929 63.20922852 245.22363281 C62.45084565 242.63946417 61.68923183 240.05625281 60.92724609 237.47314453 C59.7376502 233.43854643 58.54874317 229.40375528 57.36418152 225.36767578 C53.6493583 212.71266759 49.86232407 200.07975834 46.06161499 187.45028687 C44.19248624 181.23760571 42.32764298 175.02363946 40.46313477 168.80957031 C40.08542435 167.55079575 39.70771393 166.29202118 39.31855774 164.99510193 C34.01583706 147.31806783 28.74372905 129.63187576 23.4684267 111.94664478 C22.42900876 108.46211945 21.38948038 104.97762707 20.34985352 101.49316406 C20.14928534 100.82092741 19.94871716 100.14869076 19.74207115 99.4560833 C16.46397687 88.47016394 13.17210879 77.48843027 9.87142944 66.50927734 C5.90651118 53.3203767 1.97279877 40.12276322 -1.91577148 26.91113281 C-2.23895355 25.8141658 -2.23895355 25.8141658 -2.56866455 24.69503784 C-3.16845829 22.65799208 -3.76700249 20.62058437 -4.36499023 18.58300781 C-4.87098755 16.85969238 -4.87098755 16.85969238 -5.38720703 15.1015625 C-6.78587486 10.21170609 -7.32714181 6.3023897 -7.22827148 1.16113281 C-4.67700766 -0.1144991 -2.85635618 0.02024038 0 0 Z " fill="#047EEF" transform="translate(325.228271484375,468.8388671875)"/>
<path d="M0 0 C1.13453613 0.00273422 1.13453613 0.00273422 2.29199219 0.00552368 C22.39831479 0.08653797 41.77933684 2.20565224 61 8.3125 C61.85239258 8.5815918 62.70478516 8.85068359 63.58300781 9.12792969 C102.99015686 21.86079822 137.78881992 46.58877277 162 80.3125 C162.62914307 81.18310059 162.62914307 81.18310059 163.27099609 82.07128906 C182.55267089 109.05823198 197 142.82059641 197 176.3125 C177.53 176.3125 158.06 176.3125 138 176.3125 C136.08970935 172.49191871 135.28343859 169.45565918 134.375 165.3125 C129.32436858 144.12394548 119.48209177 124.59201451 105 108.3125 C103.94039062 107.05566406 103.94039062 107.05566406 102.859375 105.7734375 C81.71312505 81.20423342 49.24924855 64.98196503 17.0625 61.55859375 C2.09668042 60.51633131 -12.3753938 60.90305984 -27 64.3125 C-28.22460938 64.57933594 -29.44921875 64.84617187 -30.7109375 65.12109375 C-52.35080848 70.31189436 -71.27970224 80.75761786 -88 95.3125 C-88.70382812 95.88355469 -89.40765625 96.45460938 -90.1328125 97.04296875 C-107.62202191 111.48013966 -119.35228906 133.34644993 -127.4375 154.1875 C-127.76758057 155.03054688 -128.09766113 155.87359375 -128.43774414 156.7421875 C-130.46058098 162.16040597 -131.70665706 167.44858773 -132.59008789 173.16455078 C-133 175.3125 -133 175.3125 -134 176.3125 C-135.81055025 176.40626053 -137.62477201 176.4299411 -139.43774414 176.42602539 C-141.17943626 176.42591209 -141.17943626 176.42591209 -142.95631409 176.42579651 C-144.85159096 176.41805458 -144.85159096 176.41805458 -146.78515625 176.41015625 C-148.07111191 176.4087413 -149.35706757 176.40732635 -150.68199158 176.40586853 C-154.10643443 176.40204418 -157.53083509 176.39221462 -160.95526123 176.38116455 C-164.44738189 176.37094864 -167.93950934 176.36637053 -171.43164062 176.36132812 C-178.28777778 176.35059227 -185.14388687 176.33351684 -192 176.3125 C-192.0230639 174.25794744 -192.03940762 172.20331883 -192.05297852 170.14868164 C-192.06281265 169.00452286 -192.07264679 167.86036407 -192.08277893 166.68153381 C-191.96448176 161.86693694 -191.08235068 157.41251428 -189.9375 152.75 C-189.71199463 151.80874268 -189.48648926 150.86748535 -189.25415039 149.89770508 C-183.19201673 125.46695839 -173.03166277 101.59117931 -158 81.3125 C-157.41750488 80.50329102 -157.41750488 80.50329102 -156.82324219 79.67773438 C-129.0177264 41.07822368 -87.96168181 14.59001023 -41.6875 4 C-41.04401611 3.85256348 -40.40053223 3.70512695 -39.73754883 3.55322266 C-26.58064551 0.77975459 -13.40848231 -0.06770275 0 0 Z " fill="#037FF0" transform="translate(510,262.6875)"/>
<path d="M0 0 C0.66 0.33 1.32 0.66 2 1 C-1.75 4 -1.75 4 -4 4 C-4.04125 4.5775 -4.0825 5.155 -4.125 5.75 C-5.4473883 9.15042705 -7.94116234 10.1646974 -11 12 C-11.99 12.66 -12.98 13.32 -14 14 C-14.99 14 -15.98 14 -17 14 C-17.309375 15.36125 -17.309375 15.36125 -17.625 16.75 C-19.35245092 20.83306582 -21.2927281 21.67386861 -25 24 C-25.9542121 25.05041332 -26.8720898 26.135028 -27.75 27.25 C-28.4925 28.1575 -29.235 29.065 -30 30 C-30.66 30 -31.32 30 -32 30 C-32.12375 30.598125 -32.2475 31.19625 -32.375 31.8125 C-33 34 -33 34 -35 37 C-35.61875 37.28875 -36.2375 37.5775 -36.875 37.875 C-39.69895864 39.37003693 -41.12475853 41.45502944 -43 44 C-40.90573729 29.81305907 -21.95160955 15.99957692 -11.3125 7.75 C-10.76577637 7.32541504 -10.21905273 6.90083008 -9.65576172 6.46337891 C-6.55409752 4.08829866 -3.48363457 1.78147337 0 0 Z " fill="#291C1A" transform="translate(441,343)"/>
<path d="M0 0 C0 0.33 0 0.66 0 1 C-14.19 1 -28.38 1 -43 1 C-43 0.67 -43 0.34 -43 0 C-28.548452 -2.64945047 -14.50897695 -1.94896705 0 0 Z " fill="#2F1913" transform="translate(533,262)"/>
<path d="M0 0 C1.1673418 3.5020254 0.79056598 4.29616038 -0.43359375 7.66796875 C-0.75263672 8.56064453 -1.07167969 9.45332031 -1.40039062 10.37304688 C-1.74263672 11.30181641 -2.08488281 12.23058594 -2.4375 13.1875 C-2.77587891 14.12787109 -3.11425781 15.06824219 -3.46289062 16.03710938 C-4.30048809 18.36114742 -5.14645283 20.68178235 -6 23 C-8.55803184 19.16295224 -10.34505724 15.24287209 -9.625 10.5625 C-9.41875 10.046875 -9.2125 9.53125 -9 9 C-9 9.66 -9 10.32 -9 11 C-7.02 11.495 -7.02 11.495 -5 12 C-5 11.34 -5 10.68 -5 10 C-4.34 10 -3.68 10 -3 10 C-2.814375 8.9171875 -2.814375 8.9171875 -2.625 7.8125 C-2.0095069 5.04278106 -1.11555626 2.6029646 0 0 Z " fill="#251315" transform="translate(436,622)"/>
<path d="M0 0 C0.33 0 0.66 0 1 0 C0.33333333 5.33333333 -0.33333333 10.66666667 -1 16 C-1.33 16 -1.66 16 -2 16 C-2.33 17.98 -2.66 19.96 -3 22 C-3.66 22 -4.32 22 -5 22 C-5.66 25.63 -6.32 29.26 -7 33 C-7.66 33 -8.32 33 -9 33 C-7.47929148 25.69599091 -5.49566074 18.58826458 -3.375 11.4375 C-3.05015625 10.33341797 -2.7253125 9.22933594 -2.390625 8.09179688 C-1.59639176 5.39373982 -0.79946328 2.69651103 0 0 Z " fill="#26191F" transform="translate(671,594)"/>
<path d="M0 0 C0 0.99 0 1.98 0 3 C-0.66 3.66 -1.32 4.32 -2 5 C-2.68132451 6.66072849 -3.34742127 8.327767 -4 10 C-6 13 -6 13 -7.875 13.875 C-10.69895864 15.37003693 -12.12475853 17.45502944 -14 20 C-13.41452999 15.87194025 -11.17501782 13.25697914 -8.6875 10 C-7.90761719 8.96875 -7.12773437 7.9375 -6.32421875 6.875 C-4.33083357 4.40923279 -2.29351397 2.18329934 0 0 Z " fill="#2A1A16" transform="translate(412,367)"/>
<path d="M0 0 C2.64 0.33 5.28 0.66 8 1 C8 1.99 8 2.98 8 4 C9.423125 4.1546875 9.423125 4.1546875 10.875 4.3125 C14 5 14 5 16 8 C16.845625 8.33 17.69125 8.66 18.5625 9 C19.7690625 9.495 19.7690625 9.495 21 10 C21.33 10.99 21.66 11.98 22 13 C17.04288402 11.26153247 12.68611031 8.60348281 8.1875 5.9375 C7.39923828 5.47794922 6.61097656 5.01839844 5.79882812 4.54492188 C5.05439453 4.10599609 4.30996094 3.66707031 3.54296875 3.21484375 C2.86258545 2.81386475 2.18220215 2.41288574 1.48120117 1.99975586 C0.99240479 1.66983643 0.5036084 1.33991699 0 1 C0 0.67 0 0.34 0 0 Z " fill="#2E1E1D" transform="translate(602,283)"/>
<path d="M0 0 C3.40312738 1.05875074 6.01353231 2.00902154 9 4 C9 4.99 9 5.98 9 7 C9.99 6.67 10.98 6.34 12 6 C12.268125 6.804375 12.53625 7.60875 12.8125 8.4375 C13.204375 9.283125 13.59625 10.12875 14 11 C14.99 11.33 15.98 11.66 17 12 C16.67 13.32 16.34 14.64 16 16 C15.34773437 15.33613281 14.69546875 14.67226563 14.0234375 13.98828125 C8.39641677 8.24966611 8.39641677 8.24966611 2.375 2.9375 C1.59125 2.298125 0.8075 1.65875 0 1 C0 0.67 0 0.34 0 0 Z " fill="#2B1F21" transform="translate(635,304)"/>
<path d="M0 0 C3.5219721 -0.08004482 6.61981469 -0.04005702 10 1 C10 1.66 10 2.32 10 3 C10.66 3 11.32 3 12 3 C12 3.66 12 4.32 12 5 C13.4540625 5.433125 13.4540625 5.433125 14.9375 5.875 C18 7 18 7 19 9 C14.82667127 7.64851723 10.74850798 6.1587928 6.6875 4.5 C5.63949219 4.0771875 4.59148438 3.654375 3.51171875 3.21875 C1 2 1 2 0 0 Z " fill="#2D1F1E" transform="translate(582,274)"/>
<path d="M0 0 C1.25127906 3.54667178 0.72285053 5.72253438 -0.4375 9.25 C-0.72496094 10.14203125 -1.01242187 11.0340625 -1.30859375 11.953125 C-1.53675781 12.62859375 -1.76492188 13.3040625 -2 14 C-4.79908133 11.20091867 -4.72362983 8.86918237 -5 5 C-4.34 4.34 -3.68 3.68 -3 3 C-2.34 3 -1.68 3 -1 3 C-0.67 2.01 -0.34 1.02 0 0 Z " fill="#261417" transform="translate(598,630)"/>
<path d="M0 0 C0.5878125 0.35449219 1.175625 0.70898438 1.78125 1.07421875 C-7.44426253 5.66647388 -7.44426253 5.66647388 -13.21875 5.07421875 C-9.64798598 2.07477697 -4.68291359 -1.95396218 0 0 Z " fill="#2A2729" transform="translate(462.21875,333.92578125)"/>
<path d="M0 0 C3.42931954 3.7559214 4.56429083 8.23466745 6 13 C5.34 13.66 4.68 14.32 4 15 C3.731875 13.906875 3.46375 12.81375 3.1875 11.6875 C2.34540018 8.07620513 2.34540018 8.07620513 0.3125 6.375 C-0.120625 5.92125 -0.55375 5.4675 -1 5 C-0.6875 2.3125 -0.6875 2.3125 0 0 Z " fill="#292026" transform="translate(633,397)"/>
<path d="M0 0 C4.95 0.99 4.95 0.99 10 2 C10 2.99 10 3.98 10 5 C10.99 5.33 11.98 5.66 13 6 C10.32528957 7.33735521 9.30659828 6.71006471 6.5 5.8125 C5.7059375 5.57144531 4.911875 5.33039063 4.09375 5.08203125 C2 4 2 4 0 0 Z " fill="#29262A" transform="translate(566,267)"/>
<path d="M0 0 C0.66 0 1.32 0 2 0 C2.25394531 0.55429687 2.50789062 1.10859375 2.76953125 1.6796875 C3.11371094 2.40414063 3.45789063 3.12859375 3.8125 3.875 C4.14894531 4.59429687 4.48539063 5.31359375 4.83203125 6.0546875 C5.99467097 8.30542806 5.99467097 8.30542806 9 10 C8.67 11.32 8.34 12.64 8 14 C6.654869 12.42667714 5.32424946 10.84093859 4 9.25 C3.2575 8.36828125 2.515 7.4865625 1.75 6.578125 C0 4 0 4 0 0 Z " fill="#2B1F20" transform="translate(662,328)"/>
<path d="M0 0 C1.00289062 0.28746094 2.00578125 0.57492187 3.0390625 0.87109375 C3.80992187 1.09925781 4.58078125 1.32742188 5.375 1.5625 C5.045 2.2225 4.715 2.8825 4.375 3.5625 C1.735 3.5625 -0.905 3.5625 -3.625 3.5625 C-3.625 2.9025 -3.625 2.2425 -3.625 1.5625 C-4.945 0.9025 -6.265 0.2425 -7.625 -0.4375 C-4.72405209 -1.88797396 -3.06527404 -0.89106803 0 0 Z " fill="#2B2121" transform="translate(556.625,330.4375)"/>
<path d="M0 0 C0.33 0.99 0.66 1.98 1 3 C1.66 3 2.32 3 3 3 C3.33 3.99 3.66 4.98 4 6 C2.71034824 7.37562854 1.37310707 8.70766393 0 10 C-0.66 10 -1.32 10 -2 10 C-1.34 6.7 -0.68 3.4 0 0 Z " fill="#232028" transform="translate(706,475)"/>
<path d="M0 0 C2.09846613 3.96574531 3.1469921 7.59279253 4 12 C3.34 12.66 2.68 13.32 2 14 C0.12175109 12.12175109 0.60897603 8.96064724 0.4375 6.4375 C0.35371094 5.23996094 0.26992188 4.04242187 0.18359375 2.80859375 C0.12300781 1.88175781 0.06242187 0.95492187 0 0 Z " fill="#241D24" transform="translate(343,561)"/>
<path d="M0 0 C0.66 0 1.32 0 2 0 C1.49477778 4.37859255 -1.17827222 6.81651224 -4 10 C-4.66 9.67 -5.32 9.34 -6 9 C-5.54625 8.608125 -5.0925 8.21625 -4.625 7.8125 C-2.72197695 5.68989737 -1.9789061 3.65703083 -1 1 C-0.67 0.67 -0.34 0.34 0 0 Z " fill="#282629" transform="translate(415,363)"/>
<path d="M0 0 C-1.9626228 2.04795423 -3.4277307 2.94976638 -6.26953125 3.19921875 C-8.51954383 3.18858877 -10.75385562 3.12958525 -13 3 C-9.39091002 -0.60908998 -4.88215348 -0.11353845 0 0 Z " fill="#2C1A17" transform="translate(489,326)"/>
<path d="M0 0 C1.125 1.625 1.125 1.625 2 4 C1.125 7.25 1.125 7.25 0 10 C-0.66 9.67 -1.32 9.34 -2 9 C-1.125 2.25 -1.125 2.25 0 0 Z " fill="#231C21" transform="translate(468,522)"/>
<path d="M0 0 C4.95 1.98 4.95 1.98 10 4 C10 4.99 10 5.98 10 7 C9.01 6.67 8.02 6.34 7 6 C7 5.34 7 4.68 7 4 C4.69 3.67 2.38 3.34 0 3 C0 2.01 0 1.02 0 0 Z " fill="#2E2221" transform="translate(565,334)"/>
<path d="M0 0 C0.33 0 0.66 0 1 0 C0.67 3.96 0.34 7.92 0 12 C-0.99 12 -1.98 12 -3 12 C-2.01 8.04 -1.02 4.08 0 0 Z " fill="#241922" transform="translate(647,675)"/>
<path d="M0 0 C0.33 0.99 0.66 1.98 1 3 C-2.66305234 3.74926071 -5.42355152 4.2380014 -9 3 C-8.67 2.34 -8.34 1.68 -8 1 C-5.2303041 0.27113266 -2.87137415 0 0 0 Z " fill="#292324" transform="translate(471,264)"/>
<path d="M0 0 C0.66 0 1.32 0 2 0 C2 2.97 2 5.94 2 9 C1.01 9 0.02 9 -1 9 C-0.67 6.03 -0.34 3.06 0 0 Z " fill="#211F21" transform="translate(609,585)"/>
<path d="M0 0 C1.98 0 3.96 0 6 0 C6.33 0.66 6.66 1.32 7 2 C4.03 2.66 1.06 3.32 -2 4 C-2 3.34 -2 2.68 -2 2 C-1.34 2 -0.68 2 0 2 C0 1.34 0 0.68 0 0 Z " fill="#282626" transform="translate(418,281)"/>
<path d="M0 0 C-0.99 1.485 -0.99 1.485 -2 3 C-4.97 2.67 -7.94 2.34 -11 2 C-6.78370866 -0.10814567 -4.60209225 -0.17700355 0 0 Z " fill="#28282D" transform="translate(487,262)"/>
<path d="M0 0 C1.98 0.99 1.98 0.99 4 2 C4 4.64 4 7.28 4 10 C1.04816899 7.04816899 0.91336012 4.04488053 0 0 Z " fill="#261619" transform="translate(392,520)"/>
<path d="M0 0 C0.33 0.66 0.66 1.32 1 2 C1.66 2.33 2.32 2.66 3 3 C2.67 3.99 2.34 4.98 2 6 C1.34 6 0.68 6 0 6 C0 6.99 0 7.98 0 9 C-0.66 9 -1.32 9 -2 9 C-1.34 6.03 -0.68 3.06 0 0 Z " fill="#0880E0" transform="translate(634,513)"/>
<path d="M0 0 C1.1875 1.625 1.1875 1.625 2 4 C0.625 7.25 0.625 7.25 -1 10 C-1.33 10 -1.66 10 -2 10 C-1.125 2.25 -1.125 2.25 0 0 Z " fill="#1F1114" transform="translate(642,694)"/>
<path d="M0 0 C0.99 0.33 1.98 0.66 3 1 C2.34 3.64 1.68 6.28 1 9 C-1 6 -1 6 -0.625 2.8125 C-0.41875 1.884375 -0.2125 0.95625 0 0 Z " fill="#232025" transform="translate(506,582)"/>
<path d="M0 0 C0.33 0.66 0.66 1.32 1 2 C1.66 2 2.32 2 3 2 C4 5 4 5 3.0625 7.1875 C2.5365625 8.0846875 2.5365625 8.0846875 2 9 C0.50178941 5.62902617 0 3.79557881 0 0 Z " fill="#261414" transform="translate(387,501)"/>
</svg>
